<?xml version="1.0" encoding="utf-8"?>
<!-- Generator: Adobe Illustrator 24.0.2, SVG Export Plug-In . SVG Version: 6.00 Build 0)  -->
<svg version="1.1" id="Layer_1" xmlns="http://www.w3.org/2000/svg" xmlns:xlink="http://www.w3.org/1999/xlink" x="0px" y="0px"
	 viewBox="0 0 12 12" style="enable-background:new 0 0 12 12;" xml:space="preserve">
<style type="text/css">
	.st0{fill:#023047;}
</style>
<g id="google_icon" transform="translate(10)">
	<path id="Path_235" class="st0" d="M-3.9,4.9v2.3h3.3C-1,8.7-2.4,9.7-3.9,9.6c-2,0-3.7-1.5-3.7-3.5c0-2,1.5-3.7,3.5-3.7
		c0.1,0,0.1,0,0.2,0c0.9,0,1.7,0.3,2.4,0.9l1.7-1.7C-0.9,0.6-2.4,0-3.9,0C-7.2,0-10,2.7-10,6c0,3.3,2.8,6,6.1,6c5.1,0,6.3-4.7,5.8-7
		L-3.9,4.9z"/>
</g>
</svg>
