<?xml version="1.0" encoding="utf-8"?>
<!-- Generator: Adobe Illustrator 24.0.2, SVG Export Plug-In . SVG Version: 6.00 Build 0)  -->
<svg version="1.1" id="Layer_1" xmlns="http://www.w3.org/2000/svg" xmlns:xlink="http://www.w3.org/1999/xlink" x="0px" y="0px"
	 viewBox="0 0 204.6 204.1" style="enable-background:new 0 0 204.6 204.1;" xml:space="preserve">
<style type="text/css">
	.st0{fill:#8ECAE6;}
	.st1{fill:#219EBC;}
</style>
<title>Ektora Logo</title>
<g id="Layer_2_1_">
	<g id="Layer_1-2">
		<g id="pfeyfV.tif">
			<path class="st0" d="M66.3,204.1c-3.5-2.1-8-3.5-10.3-6.5c-3-3.9-4.9-8.5-5.4-13.3c-0.8-9.8-0.2-19.8-0.2-30.2
				c-9.8,0-19.1,0.1-28.4,0C8.3,154-0.6,145,0,132.5c0.5-9.6,7.9-18.4,17.5-18.6c24.1-0.5,48.2-0.2,73-0.2v5.6
				c0,19.9-0.4,39.8,0.2,59.7c0.3,12.6-4.3,21.1-16.4,25.1H66.3z"/>
			<path class="st0" d="M154.3,50.1c10.6,0,20.4-0.1,30.2,0s17.6,6.5,19.6,15.4c2.2,9.1-2.2,18.4-10.6,22.5c-2.4,1.2-5,1.9-7.6,2.1
				c-23.6,0.2-47.2,0.1-71.1,0.1c-0.3-1-0.4-1.9-0.5-2.9c-0.1-22.4-0.2-44.7-0.1-67.1C114,9.1,123,0.1,134.1,0
				c9.2,0,17.2,6.1,19.5,15c0.9,3.4,0.6,7.2,0.6,10.8C154.3,33.7,154.3,41.6,154.3,50.1z"/>
			<path class="st1" d="M50.4,50.2c0-7.4-0.1-14,0-20.6c0.2-10.2,8.7-18.6,19.2-19.1C79.9,9.9,90,17.8,90.2,28
				c0.5,20.4,0.2,40.8,0.1,61.1c0,0.3-0.3,0.6-0.7,1.3H77.5c-15.3,0-30.7,0-46,0c-12.2,0-21-8.3-21.2-19.7
				c-0.1-11.8,8.6-20.4,21-20.5C37.5,50.1,43.6,50.2,50.4,50.2z"/>
			<path class="st1" d="M153.9,153.7c0,6.9,0.1,13.1,0,19.4c-0.1,11.4-8.5,19.9-19.7,20.1c-10.7,0.2-19.5-8.3-19.9-19
				c-0.4-19.5-0.2-39.1-0.2-58.7c0.1-0.6,0.3-1.1,0.5-1.6c1.4-0.1,2.9-0.2,4.3-0.2c18,0,36,0,54,0c12.2,0,21.1,8.3,21.1,19.7
				s-8.4,19.9-20.7,20.2C167.1,153.8,160.9,153.7,153.9,153.7z"/>
		</g>
	</g>
</g>
</svg>
