<?xml version="1.0" encoding="utf-8"?>
<!-- Generator: Adobe Illustrator 24.0.2, SVG Export Plug-In . SVG Version: 6.00 Build 0)  -->
<svg version="1.1" id="Layer_1" xmlns="http://www.w3.org/2000/svg" xmlns:xlink="http://www.w3.org/1999/xlink" x="0px" y="0px"
	 viewBox="0 0 24 24" style="enable-background:new 0 0 24 24;" xml:space="preserve">
<style type="text/css">
	.st0{fill:#023047;}
</style>
<title>/svg/ic-activity</title>
<desc>Created with Sketch.</desc>
<g id="Page-1">
	<g id="ic-activity">
		<path id="Path-32" class="st0" d="M6.1,18.3c0.6,1.3,2.1,1.3,2.6-0.1l2.3-6.6l2.5,7.4c0.5,1.5,2.2,1.4,2.4-0.2l2-12.2l2.2,4.4
			c0.2,0.5,0.8,0.7,1.3,0.4s0.7-0.8,0.4-1.3l-3.2-6.3c-0.7-1.4-2.2-1.1-2.5,0.4l-1.9,11.2l-2.1-6.3c-0.5-1.4-2-1.4-2.5,0l-2.4,7
			l-1-2.1c-0.6-1.2-2-1.3-2.7-0.1L2,16.4c-0.3,0.5-0.1,1.1,0.4,1.4s1.1,0.1,1.4-0.4l1-1.7L6.1,18.3z"/>
	</g>
</g>
</svg>
