<?xml version="1.0" encoding="utf-8"?>
<!-- Generator: Adobe Illustrator 24.0.2, SVG Export Plug-In . SVG Version: 6.00 Build 0)  -->
<svg version="1.1" id="Layer_1" xmlns="http://www.w3.org/2000/svg" xmlns:xlink="http://www.w3.org/1999/xlink" x="0px" y="0px"
	 viewBox="0 0 24 24" style="enable-background:new 0 0 24 24;" xml:space="preserve">
<style type="text/css">
	.st0{fill:#023047;}
	.st1{fill:none;stroke:#023047;stroke-width:2;stroke-linecap:round;}
</style>
<title>/svg/ic-bullseye</title>
<desc>Created with Sketch.</desc>
<g id="Page-1">
	<g id="ic-bullseye">
		<path id="Oval-46" class="st0" d="M12,21c5,0,9-4,9-9s-4-9-9-9s-9,4-9,9S7,21,12,21L12,21z M12,23L12,23C5.9,23,1,18.1,1,12
			S5.9,1,12,1s11,4.9,11,11S18.1,23,12,23L12,23z M12,16c2.2,0,4-1.8,4-4s-1.8-4-4-4s-4,1.8-4,4S9.8,16,12,16L12,16z M12,18L12,18
			c-3.3,0-6-2.7-6-6s2.7-6,6-6s6,2.7,6,6S15.3,18,12,18L12,18z"/>
		<path id="Path-113" class="st1" d="M12,12L22,2"/>
	</g>
</g>
</svg>
