<?xml version="1.0" encoding="utf-8"?>
<!-- Generator: Adobe Illustrator 24.0.2, SVG Export Plug-In . SVG Version: 6.00 Build 0)  -->
<svg version="1.1" id="Layer_1" xmlns="http://www.w3.org/2000/svg" xmlns:xlink="http://www.w3.org/1999/xlink" x="0px" y="0px"
	 viewBox="0 0 24 24" style="enable-background:new 0 0 24 24;" xml:space="preserve">
<style type="text/css">
	.st0{fill:#023047;}
</style>
<title>/svg/ic-dashboard</title>
<desc>Created with Sketch.</desc>
<g id="Page-1">
	<g id="ic-dashboard">
		<path id="Oval-7" class="st0" d="M12,23C5.9,23,1,18.1,1,12S5.9,1,12,1s11,4.9,11,11S18.1,23,12,23z M12,21c5,0,9-4,9-9s-4-9-9-9
			s-9,4-9,9S7,21,12,21z M11,3c0-0.6,0.4-1,1-1s1,0.4,1,1v1c0,0.6-0.4,1-1,1s-1-0.4-1-1V3z M17,4.5C17.4,4,18,4,18.4,4.3
			c0.4,0.4,0.5,1,0.1,1.4l-0.6,0.8c-0.4,0.4-1,0.5-1.4,0.1s-0.5-1-0.1-1.4L17,4.5z M20.7,9.5c0.5-0.1,1.1,0.3,1.2,0.8
			s-0.3,1.1-0.8,1.2l-1,0.2c-0.5,0.1-1.1-0.3-1.2-0.8s0.3-1.1,0.8-1.2L20.7,9.5z M20.3,15.6c0.5,0.3,0.6,0.9,0.4,1.4
			c-0.3,0.5-0.9,0.6-1.4,0.4l-0.9-0.5c-0.5-0.3-0.6-0.9-0.4-1.4c0.3-0.5,0.9-0.6,1.4-0.4L20.3,15.6z M16,20.1
			c0.2,0.5-0.1,1.1-0.6,1.3c-0.5,0.2-1.1-0.1-1.3-0.6l-0.3-0.9c-0.2-0.5,0.1-1.1,0.6-1.3c0.5-0.2,1.1,0.1,1.3,0.6L16,20.1z
			 M9.9,20.8c-0.2,0.5-0.8,0.8-1.3,0.6c-0.5-0.2-0.8-0.8-0.6-1.3l0.3-0.9c0.2-0.5,0.8-0.8,1.3-0.6c0.5,0.2,0.8,0.8,0.6,1.3L9.9,20.8
			z M4.7,17.4c-0.5,0.3-1.1,0.1-1.4-0.4s-0.1-1.1,0.4-1.4l0.9-0.5C5.1,14.8,5.7,15,6,15.5s0.1,1.1-0.4,1.4L4.7,17.4z M3,11.4
			c-0.5-0.1-0.9-0.6-0.8-1.2c0.1-0.5,0.6-0.9,1.2-0.8l1,0.2c0.5,0.1,0.9,0.6,0.8,1.2c-0.1,0.5-0.6,0.9-1.2,0.8L3,11.4z M5.4,5.7
			c-0.3-0.4-0.3-1,0.2-1.4C6,4,6.6,4,7,4.5l0.6,0.8c0.4,0.4,0.3,1-0.1,1.3C7.1,7,6.4,6.9,6.1,6.5L5.4,5.7z M12.9,9.3L14.7,9v1.9
			c0,0.4,0,0.9-0.1,1.5c-0.1,0.9-0.3,1.5-0.7,2c-1,1.2-2.8,1.3-4,0.3s-1.4-2.8-0.4-3.9c0.4-0.5,1-0.8,1.9-1
			C12,9.5,12.5,9.4,12.9,9.3z M13.2,10.9c0,0-1.9,0.3-2.3,0.8c-0.4,0.5-0.3,1.3,0.2,1.7s1.3,0.4,1.7-0.1
			C13.2,12.8,13.2,10.9,13.2,10.9z"/>
	</g>
</g>
</svg>
