<?xml version="1.0" encoding="utf-8"?>
<!-- Generator: Adobe Illustrator 24.0.2, SVG Export Plug-In . SVG Version: 6.00 Build 0)  -->
<svg version="1.1" id="Layer_1" xmlns="http://www.w3.org/2000/svg" xmlns:xlink="http://www.w3.org/1999/xlink" x="0px" y="0px"
	 viewBox="0 0 24 24" style="enable-background:new 0 0 24 24;" xml:space="preserve">
<style type="text/css">
	.st0{fill:#023047;}
</style>
<title>/svg/ic-file</title>
<desc>Created with Sketch.</desc>
<g id="Page-1">
	<g id="ic-file">
		<path id="Rectangle-156" class="st0" d="M7,19c0,0.6,0.4,1,1,1h8c0.5,0,1-0.4,1-1V8c0-0.6-0.3-1.3-0.7-1.7l-1.6-1.6
			C14.4,4.3,13.6,4,13,4H8C7.4,4,7,4.4,7,5V19z M5,5c0-1.7,1.3-3,3-3h5c1.1,0,2.4,0.5,3.1,1.3l1.6,1.6C18.5,5.6,19,6.9,19,8v11
			c0,1.7-1.3,3-3,3H8c-1.7,0-3-1.3-3-3V5z M8,9c0-0.6,0.5-1,1-1h6c0.6,0,1,0.4,1,1l0,0c0,0.6-0.5,1-1,1H9C8.4,10,8,9.6,8,9L8,9z
			 M8,12c0-0.6,0.5-1,1-1h4c0.5,0,1,0.4,1,1l0,0c0,0.6-0.5,1-1,1H9C8.4,13,8,12.6,8,12L8,12z M8,15c0-0.6,0.4-1,1-1h2
			c0.6,0,1,0.4,1,1l0,0c0,0.6-0.4,1-1,1H9C8.5,16,8,15.6,8,15L8,15z"/>
	</g>
</g>
</svg>
