<?xml version="1.0" encoding="utf-8"?>
<!-- Generator: Adobe Illustrator 24.0.2, SVG Export Plug-In . SVG Version: 6.00 Build 0)  -->
<svg version="1.1" id="Layer_1" xmlns="http://www.w3.org/2000/svg" xmlns:xlink="http://www.w3.org/1999/xlink" x="0px" y="0px"
	 viewBox="0 0 24 24" style="enable-background:new 0 0 24 24;" xml:space="preserve">
<style type="text/css">
	.st0{fill:#023047;}
</style>
<title>/svg/ic-remove</title>
<desc>Created with Sketch.</desc>
<g id="Page-1">
	<g id="ic-remove">
		<path id="Combined-Shape" class="st0" d="M12,21c5,0,9-4,9-9s-4-9-9-9s-9,4-9,9S7,21,12,21z M12,23C5.9,23,1,18.1,1,12S5.9,1,12,1
			s11,4.9,11,11S18.1,23,12,23z M9,11c-0.5,0-1,0.4-1,1s0.4,1,1,1h6c0.5,0,1-0.4,1-1s-0.4-1-1-1H9z"/>
	</g>
</g>
</svg>
