<?xml version="1.0" encoding="utf-8"?>
<!-- Generator: Adobe Illustrator 24.0.2, SVG Export Plug-In . SVG Version: 6.00 Build 0)  -->
<svg version="1.1" id="Layer_1" xmlns="http://www.w3.org/2000/svg" xmlns:xlink="http://www.w3.org/1999/xlink" x="0px" y="0px"
	 viewBox="0 0 24 24" style="enable-background:new 0 0 24 24;" xml:space="preserve">
<style type="text/css">
	.st0{fill-rule:evenodd;clip-rule:evenodd;fill:#023047;}
	.st1{fill:#023047;}
</style>
<title>/svg/ic-write</title>
<desc>Created with Sketch.</desc>
<g id="Page-1">
	<g id="ic-write">
		<path id="Combined-Shape" class="st0" d="M2,21c0-0.6,0.5-1,1-1h6c0.6,0,1,0.4,1,1c0,0.6-0.5,1-1,1H3C2.4,22,2,21.6,2,21z M11,21
			c0-0.6,0.4-1,1-1h5c0.6,0,1,0.4,1,1c0,0.6-0.4,1-1,1h-5C11.4,22,11,21.6,11,21z M19,21c0-0.6,0.4-1,1-1h1c0.6,0,1,0.4,1,1
			c0,0.6-0.4,1-1,1h-1C19.4,22,19,21.6,19,21z"/>
		<path id="Rectangle-85" class="st1" d="M7.2,15.7l3.5-0.6l7.5-7.5c0.4-0.4,0.4-1,0-1.4l-1.4-1.4c-0.4-0.4-1-0.4-1.4,0l-7.5,7.5
			L7.2,15.7z M4.7,18.2L6,11.2l8-8c1.1-1.1,3-1.1,4.2,0.1l1.4,1.4c1.2,1.2,1.2,3.1,0.1,4.2l-8,8L4.7,18.2z"/>
	</g>
</g>
</svg>
